<svg viewBox="0 0 151 91" xmlns="http://www.w3.org/2000/svg" xmlns:xlink="http://www.w3.org/1999/xlink"><defs><path id="a" d="M0 91h151V0H0z"/></defs><g fill="none" fill-rule="evenodd"><path d="M0 45.5 75.5 91 151 45.5 75.5 0 0 45.5Zm7.436 0L75.5 4.482 143.564 45.5 75.5 86.518 7.436 45.5Z" fill="#FFC815"/><g><path d="M49.083 58.58h-8.345c-3.652 0-5.427-1.78-5.427-5.44v-3.55h5.773v3.186c0 .356.024.38.38.38h6.748c.355 0 .38-.024.38-.38v-3.057c0-.555-.084-.694-.965-.897l-6.745-1.456c-2.718-.588-5.498-1.711-5.498-5.577V37.86c0-3.66 1.775-5.44 5.426-5.44h7.838c3.651 0 5.426 1.78 5.426 5.44v3.259h-5.773v-2.895c0-.355-.024-.38-.38-.38h-6.24c-.355 0-.379.025-.379.38v2.765c0 .557.083.694.965.899l6.743 1.454c2.72.588 5.499 1.71 5.499 5.578v4.22c0 3.66-1.775 5.44-5.426 5.44" fill="#FFC815"/><mask id="b" fill="#fff"><use xlink:href="#a"/></mask><path fill="#FFC815" mask="url(#b)" d="M58.788 58.579h5.918V32.421h-5.918zM86.622 58.579H69.746V32.421h5.918v20.662h10.958zM98.978 58.579h-6.607l-8.087-26.158h6.468l4.996 18.686 4.995-18.686h6.323zM109.77 58.579h5.918V32.421h-5.918zM52.33 63.059h1.633l1.519 3.45 1.508-3.45h1.624v6.194h-1.43v-3.761l-1.244 2.974h-.971l-1.244-2.974v3.761H52.33zM62.813 66.696l-.644-2.425-.654 2.425h1.298Zm.335 1.247H61.18l-.353 1.31H59.31l1.87-6.194h2.021l1.879 6.193H63.5l-.352-1.309ZM66.253 64.342h-1.606v-1.283h4.686v1.283h-1.615v4.911h-1.465zM70.134 63.059h4.254v1.274H71.6v1.123h2.232v1.257H71.6v1.265h2.788v1.275h-4.254zM78.41 65.9c.124 0 .169-.036.169-.17v-1.255c0-.133-.045-.168-.168-.168h-1.563v1.592h1.563Zm1.853 3.353h-1.526l-1.032-2.132h-.857v2.132h-1.465v-6.194h3.443c.82 0 1.218.39 1.218 1.22v1.55c0 .698-.275 1.08-.848 1.185l1.067 2.239ZM81.144 69.252h1.465v-6.193h-1.465zM86.81 66.696l-.645-2.425-.653 2.425h1.297Zm.335 1.247h-1.969l-.352 1.31h-1.518l1.87-6.194h2.022l1.879 6.193h-1.58l-.352-1.309ZM89.772 63.059h1.466v4.902h2.567v1.292h-4.033zM94.369 68.032v-.814h1.447v.628c0 .124.045.169.168.169h1.394c.124 0 .168-.045.168-.169V67.2c0-.142-.062-.186-.247-.23l-1.64-.398c-.822-.204-1.273-.434-1.273-1.274V64.28c0-.832.398-1.221 1.218-1.221h2.083c.82 0 1.217.39 1.217 1.22v.744h-1.446v-.558c0-.131-.044-.167-.168-.167h-1.27c-.124 0-.168.036-.168.167v.576c0 .141.053.186.247.23l1.642.399c.82.203 1.27.433 1.27 1.274v1.088c0 .823-.397 1.22-1.217 1.22h-2.207c-.82 0-1.218-.397-1.218-1.22"/></g></g></svg>